<svg xmlns="http://www.w3.org/2000/svg"  style="display: none">

  <symbol id="awr-info-icon" viewBox="0 0 24 24">
    <path d="M0,0H20V20H0Z" fill="none"/>
    <path d="M9.2,6h1.6V7.6H9.2Zm0,3.2h1.6V14H9.2ZM10,2a8,8,0,1,0,8,8A8,8,0,0,0,10,2Zm0,14.4A6.4,6.4,0,1,1,16.4,10,6.408,6.408,0,0,1,10,16.4Z" />
  </symbol>

  <symbol id="awr-completed-icon" viewBox="0 0 24 24">
    <path d="M0,0H24V24H0Z" fill="none"/>
    <path d="M9,16.2,4.8,12,3.4,13.4,9,19,21,7,19.6,5.6Z"/>
  </symbol>

  <symbol id="awr-arrow-icon" viewBox="0 0 11.785 9.771">
    <g transform="translate(-99.5 -18.614)">
      <line x2="8" transform="translate(99.5 23.5)" fill="none" stroke="#98d7fb" stroke-width="1"/>
      <path  d="M5.37,5.369l-4.2,4.2A.684.684,0,0,1,.2,8.6L3.918,4.886.2,1.168A.684.684,0,0,1,1.168.2l4.2,4.2a.684.684,0,0,1,0,.967Z" transform="translate(105.715 18.614)" />
    </g>
  </symbol>

  <symbol id="awr-cart-icon" viewBox="0 0 24 24">
    <path d="M0,0H24V24H0Z" fill="none"/>
    <path  d="M22,9H17.21L12.83,2.44A.993.993,0,0,0,12,2.02a.977.977,0,0,0-.83.43L6.79,9H2a1,1,0,0,0-1,1,.842.842,0,0,0,.04.27l2.54,9.27A1.989,1.989,0,0,0,5.5,21h13a2.01,2.01,0,0,0,1.93-1.46l2.54-9.27L23,10A1,1,0,0,0,22,9ZM12,4.8,14.8,9H9.2ZM18.5,19l-12.99.01L3.31,11H20.7ZM12,13a2,2,0,1,0,2,2A2.006,2.006,0,0,0,12,13Z" />
    <circle cx="2" cy="2" r="2" transform="translate(10 13)" fill="#50cd89" opacity="0.5"/>
  </symbol>

  <symbol id="awr-***-icon" viewBox="0 0 24 24">
   
  </symbol>
  
</svg>
